<?xml version="1.0" encoding="UTF-8" standalone="no"?>
<!-- Created with Inkscape (http://www.inkscape.org/) -->

<svg
   xmlns:dc="http://purl.org/dc/elements/1.1/"
   xmlns:cc="http://creativecommons.org/ns#"
   xmlns:rdf="http://www.w3.org/1999/02/22-rdf-syntax-ns#"
   xmlns:svg="http://www.w3.org/2000/svg"
   xmlns="http://www.w3.org/2000/svg"
   xmlns:sodipodi="http://sodipodi.sourceforge.net/DTD/sodipodi-0.dtd"
   xmlns:inkscape="http://www.inkscape.org/namespaces/inkscape"
   width="48"
   height="48"
   viewBox="0 0 12.7 12.7"
   version="1.1"
   id="svg3723"
   inkscape:version="0.92.4 (5da689c313, 2019-01-14)"
   sodipodi:docname="pyload.svg">
  <defs
     id="defs3717" />
  <sodipodi:namedview
     id="base"
     pagecolor="#ffffff"
     bordercolor="#666666"
     borderopacity="1.0"
     inkscape:pageopacity="0.0"
     inkscape:pageshadow="2"
     inkscape:zoom="1.4142136"
     inkscape:cx="-97.855608"
     inkscape:cy="-142.83687"
     inkscape:document-units="mm"
     inkscape:current-layer="layer1"
     showgrid="false"
     units="px"
     inkscape:window-width="1680"
     inkscape:window-height="986"
     inkscape:window-x="0"
     inkscape:window-y="27"
     inkscape:window-maximized="1" />
  <metadata
     id="metadata3720">
    <rdf:RDF>
      <cc:Work
         rdf:about="">
        <dc:format>image/svg+xml</dc:format>
        <dc:type
           rdf:resource="http://purl.org/dc/dcmitype/StillImage" />
        <dc:title></dc:title>
      </cc:Work>
    </rdf:RDF>
  </metadata>
  <g
     inkscape:label="Ebene 1"
     inkscape:groupmode="layer"
     id="layer1"
     transform="translate(0,-284.3)">
    <g
       transform="matrix(0.0127565,0,0,0.0127565,-0.02599276,284.3273)"
       id="#000000ff">
      <path
         style="opacity:1;fill:#000000"
         inkscape:connector-curvature="0"
         d="M 174.96,5.41 C 186.3,5.28 197.68,5.9 208.99,4.82 263.33,4.84 317.67,4.8 372.02,4.84 395.99,4.04 419.99,4.59 443.97,4.43 505.3,4.42 566.62,4.45 627.95,4.42 c 31.65,1.24 63.4,-0.64 95.02,1.19 4.33,0.76 8.75,1.52 12.76,3.45 2.15,1.53 4.21,3.21 6.51,4.54 1.79,0.6 3.09,-1.07 4.48,-1.91 1.46,-1.04 2.95,-2.06 4.48,-3.03 6.34,-2.25 12.99,-3.78 19.77,-3.23 13.98,-1.08 28.02,-0.44 42.03,-0.61 6.86,0.15 13.76,-0.38 20.6,0.42 7.66,0.71 15.43,-0.6 23.03,0.91 11.66,0.96 23.16,3.83 34.06,8.03 1.63,0.66 3.28,1.3 4.92,1.96 1.34,0.67 2.68,1.36 4.02,2.06 0.51,0.25 1.54,0.75 2.06,1 6.06,2.7 11.1,7.11 16.85,10.37 2.37,2.3 4.77,4.59 7.47,6.51 3.11,2.87 6.19,5.8 8.9,9.06 0.37,0.39 1.1,1.16 1.47,1.54 1.12,1.6 2.38,3.1 3.51,4.71 l 0.46,-0.01 c 0.8,1.36 1.63,2.71 2.44,4.08 l 0.52,-0.1 c 1.84,3.08 3.91,6.02 5.86,9.03 0.72,1.02 1.47,2.03 2.24,3.04 0.42,1.06 0.85,2.12 1.29,3.18 0.72,0.24 1.45,0.5 2.19,0.75 -0.49,0.06 -1.46,0.17 -1.95,0.23 1,1.19 2.02,2.37 2.97,3.62 0.2,0.52 0.61,1.56 0.81,2.08 0.25,0.5 0.76,1.48 1.01,1.97 1.02,2.01 2.04,4.03 3.07,6.04 0.97,2.36 1.91,4.75 3.01,7.06 1.65,3.18 2.6,6.65 3.93,9.97 1.93,4.87 3.41,9.9 5.1,14.85 5.41,16.61 8.84,33.76 12.73,50.77 4.02,21 7.91,42.11 9.24,63.46 1.16,4.74 0.54,9.62 0.89,14.43 1.59,8.97 0.62,18.12 0.85,27.17 -0.58,6.23 0.41,12.46 -0.04,18.68 -0.29,-4.35 0.28,-8.77 -0.74,-13.06 -0.26,20.05 -3.4,39.97 -7.45,59.6 -2.74,12.31 -6.34,24.41 -10.09,36.44 -3.83,10.34 -7.19,20.86 -11.5,31.02 -0.87,2.36 -1.8,4.71 -2.97,6.95 -0.67,1.67 -1.31,3.36 -1.96,5.05 -0.67,1.32 -1.35,2.64 -2.02,3.96 -0.64,1.69 -1.29,3.38 -1.95,5.07 -0.85,1.6 -1.69,3.2 -2.5,4.83 -0.39,0.74 -0.76,1.49 -1.12,2.25 -1.27,1.88 -2.39,3.84 -3.43,5.84 -2.2,4.19 -4.65,8.25 -7.58,11.97 -2.15,3.33 -4.41,6.59 -6.86,9.71 -2.1,2.58 -4.19,5.17 -6.38,7.68 -3.92,4.8 -9.06,8.25 -13.58,12.42 -1.26,0.79 -2.51,1.61 -3.76,2.39 v 0.51 c -1.13,0.67 -2.22,1.35 -3.36,1.97 -3.15,1.98 -6.3,3.97 -9.66,5.57 -0.49,0.24 -1.47,0.71 -1.96,0.95 -2.21,1.2 -4.5,2.26 -6.88,3.09 -2.61,1.09 -5.23,2.14 -7.93,2.98 -10.35,3.09 -21.04,4.85 -31.77,5.7 -5.04,-0.12 -10.06,0.04 -15.06,0.57 -27.69,0.08 -55.37,-0.02 -83.06,0.04 -3.44,0.19 -7.1,0.02 -10.19,1.8 -0.72,2.81 0.04,5.66 1.11,8.27 0.92,3.51 1.74,7.09 1.72,10.75 -0.01,23.66 -0.04,47.33 0.01,71 -0.35,14.7 -4,29.18 -9.74,42.67 -0.32,1.03 -0.66,2.05 -1.03,3.07 -1.11,3.06 -2.47,6.03 -4.08,8.88 -0.42,1.22 -0.84,2.45 -1.23,3.7 -0.59,1.09 -1.18,2.18 -1.77,3.28 -1.63,3.71 -3.19,7.46 -4.96,11.11 -0.68,1.33 -1.36,2.65 -2.04,3.99 -0.65,1.33 -1.32,2.65 -1.98,3.99 -0.99,2.01 -2,4.01 -3.02,6 -0.79,1.62 -1.6,3.24 -2.4,4.86 -1.11,1.71 -2.16,3.46 -3.16,5.24 -0.47,0.94 -0.93,1.89 -1.38,2.85 -0.25,0.49 -0.74,1.48 -0.98,1.97 -0.24,0.52 -0.73,1.57 -0.97,2.09 -1.35,2.32 -2.71,4.63 -4.09,6.94 -1.2,2.39 -2.56,4.7 -4.06,6.92 -0.2,0.54 -0.62,1.62 -0.83,2.16 -1.31,2.3 -2.7,4.56 -4.15,6.78 -0.44,1.03 -0.87,2.07 -1.29,3.12 -4.86,7.53 -9.01,15.48 -13.74,23.09 -1.01,1.67 -2.03,3.32 -3.01,5.01 -0.98,1.62 -1.96,3.23 -2.9,4.88 -7.42,11.96 -14.64,24.05 -22.02,36.04 -3.71,5.57 -6.93,11.45 -10.89,16.86 -2.54,4.88 -5.84,9.31 -8.56,14.09 -3.96,5.51 -7.47,11.33 -11.4,16.87 -1.92,3.86 -4.41,7.41 -7.02,10.84 -0.46,1.45 -0.87,2.92 -1.3,4.4 -0.11,-0.46 -0.34,-1.37 -0.45,-1.82 -1.14,1.89 -2.25,3.8 -3.34,5.73 -0.82,1.25 -1.65,2.49 -2.42,3.77 -0.73,1.09 -1.47,2.17 -2.19,3.27 -1.36,1.95 -2.66,3.93 -3.93,5.94 -4.72,6.96 -9.38,13.96 -13.99,20.99 -4.07,5.84 -7.82,11.89 -11.96,17.68 -7.58,11.5 -15.63,22.69 -23,34.33 l -0.47,-0.02 c -2.12,3.36 -4.4,6.62 -6.53,9.98 l -0.51,0.07 c -0.88,1.44 -1.8,2.85 -2.72,4.27 -4.95,5.85 -8.34,12.82 -13.21,18.74 -2.98,4.81 -8.35,7.17 -13.14,9.76 -0.48,0.1 -1.42,0.29 -1.9,0.39 -4.71,1.45 -9.85,0.89 -14.67,0.3 -1,-0.58 -2.02,-1.11 -3.04,-1.59 -0.44,0.11 -1.33,0.34 -1.77,0.46 l 0.21,-1.16 c -5.44,-1.31 -9.1,-6.08 -12.52,-10.16 l -0.35,-0.01 c -1.37,-2.42 -2.93,-4.73 -4.74,-6.83 -1.06,-1.51 -2.14,-2.99 -3.25,-4.43 -2.2,-2.9 -4.28,-5.87 -6.75,-8.53 -0.92,-1.4 -1.94,-2.72 -2.96,-4.02 -1.03,-1.49 -2.14,-2.91 -3.26,-4.31 -2.96,-4.03 -5.94,-8.03 -9,-11.97 -1.92,-2.59 -3.83,-5.17 -5.6,-7.85 l -0.48,-0.11 c -0.81,-1.35 -1.65,-2.66 -2.45,-3.99 l -0.53,-0.02 c -0.83,-1.34 -1.67,-2.66 -2.47,-3.99 l -0.5,-0.01 c -1.46,-2.34 -3.01,-4.61 -4.55,-6.88 l -0.39,-0.17 c -1.02,-1.43 -2.06,-2.82 -3.11,-4.21 -1.52,-2.22 -3.05,-4.42 -4.48,-6.69 l -0.51,-0.03 c -0.81,-1.34 -1.65,-2.65 -2.47,-3.97 l -0.5,-0.05 c -3.08,-5.3 -7.61,-9.55 -10.51,-14.98 l -0.51,0.01 c -0.82,-1.35 -1.66,-2.67 -2.47,-4.01 l -0.5,-0.04 c -1.49,-2.33 -3.04,-4.62 -4.53,-6.94 l -0.41,-0.06 c -1.17,-1.72 -2.51,-3.3 -3.7,-4.98 -0.64,-1 -1.28,-2 -1.87,-3 -1.03,-1.3 -2.07,-2.57 -3.08,-3.86 -0.47,-0.83 -0.95,-1.65 -1.42,-2.45 -5.83,-7.89 -11.28,-16.04 -17.09,-23.93 -0.88,-1.39 -1.77,-2.77 -2.62,-4.16 -0.7,-0.76 -1.39,-1.51 -2.07,-2.25 -0.97,-1.61 -2.09,-3.12 -3.27,-4.57 -2.18,-3.23 -4.34,-6.47 -6.49,-9.71 l -0.47,-0.08 c -2.99,-4.73 -6.09,-9.4 -9.45,-13.87 -0.54,-0.81 -1.07,-1.61 -1.6,-2.4 -6.01,-8.85 -11.91,-17.79 -17.84,-26.7 -4.68,-6.09 -8.68,-12.65 -13,-18.99 -0.72,-1.01 -1.42,-2.03 -2.09,-3.05 -0.85,-1.36 -1.73,-2.67 -2.6,-3.99 -3.42,-5.79 -7.31,-11.26 -10.85,-16.97 -0.77,-1.28 -1.54,-2.54 -2.34,-3.79 -2,-3.02 -3.83,-6.14 -5.67,-9.26 -3.36,-5.25 -6.56,-10.6 -9.97,-15.82 -1.19,-2.11 -2.45,-4.19 -3.67,-6.27 -1.01,-2 -2.14,-3.93 -3.33,-5.81 -1.26,-2.06 -2.49,-4.14 -3.68,-6.23 -1.21,-2.37 -2.58,-4.63 -4.06,-6.83 -0.42,-1.01 -0.83,-2.02 -1.23,-3.02 -1.23,-2 -2.51,-3.96 -3.7,-5.97 -0.76,-1.64 -1.55,-3.25 -2.31,-4.88 -1.25,-2.37 -2.43,-4.77 -3.64,-7.16 -0.65,-1.34 -1.31,-2.67 -1.98,-3.98 -0.98,-2.01 -1.99,-4.01 -3.02,-5.99 -0.48,-0.98 -0.96,-1.95 -1.44,-2.91 -0.65,-1.68 -1.3,-3.36 -1.99,-5.02 -0.81,-1.56 -1.51,-3.17 -2.11,-4.81 -0.73,-2.06 -1.47,-4.12 -2.37,-6.1 -4.35,-13.11 -6.16,-26.92 -5.92,-40.7 -0.01,-28.32 0.04,-56.64 -0.03,-84.96 -7.04,2.37 -14.45,2.85 -21.8,3.48 -16.68,0.03 -33.36,-0.02 -50.04,0.02 -6.33,0.16 -12.58,-1.18 -18.91,-1.05 -14.63,-1.42 -29.29,-4.51 -42.7,-10.7 -1.98,-0.8 -3.97,-1.59 -5.96,-2.39 -2.21,-1.36 -4.45,-2.67 -6.7,-3.96 -3.89,-2.21 -7.75,-4.48 -11.27,-7.25 -1.28,-1.08 -2.64,-2.06 -4.04,-2.96 -1.53,-1.48 -3.13,-2.89 -4.97,-3.95 -4.24,-3.95 -8.34,-8.06 -12.3,-12.29 -3.9,-4.6 -7.5,-9.44 -11.21,-14.19 -2.4,-3.89 -5.19,-7.52 -7.39,-11.53 -0.75,-1.22 -1.53,-2.41 -2.28,-3.62 -1.01,-1.99 -2,-3.98 -2.96,-5.98 -0.68,-1.34 -1.37,-2.66 -2.05,-3.99 -1.14,-2.29 -2.13,-4.66 -3.04,-7.05 C 19.99,382.49 13.5,349.01 7.97,315.77 6.53,306.54 5.48,297.26 4.47,287.99 4.73,282.3 3.2,276.74 3.41,271.07 3.6,258.46 3.12,245.82 3.7,233.23 c -1.09,0.73 -1.18,2.48 -1.22,3.67 0.16,13.26 0.15,26.53 0.04,39.8 -0.28,-14.52 0.03,-29.07 -0.25,-43.58 2.57,-4 0.6,-8.82 1.18,-13.28 0.09,3.54 0.06,7.12 0.78,10.61 -0.08,-9.54 1.59,-18.94 2.46,-28.41 2.81,-20.27 6.7,-40.38 11.64,-60.23 2.93,-12.13 6.58,-24.09 11.39,-35.62 1.12,-2.66 2.25,-5.32 3.51,-7.92 0.82,-1.61 1.64,-3.23 2.44,-4.86 0.98,-1.93 1.95,-3.88 2.89,-5.83 0.59,-0.7 1.18,-1.39 1.77,-2.09 0.43,-1.04 0.86,-2.07 1.29,-3.1 2.92,-3.83 5.43,-7.94 8.08,-11.96 l 0.42,-0.06 c 1.2,-1.65 2.46,-3.26 3.64,-4.92 l 0.29,-0.16 c 1.62,-1.84 3.16,-3.75 4.64,-5.71 1.12,-1.17 2.26,-2.33 3.38,-3.5 2.61,-2.95 5.36,-5.78 8.32,-8.38 2.19,-1.23 3.97,-3.01 5.69,-4.81 1.86,-1.11 3.61,-2.4 5.27,-3.81 l 0.1,-0.38 c 2.37,-1.41 4.7,-2.92 6.7,-4.85 3.05,-1.93 6.19,-3.69 9.19,-5.7 0.51,-0.23 1.54,-0.68 2.05,-0.91 3.88,-2.21 7.78,-4.41 11.95,-6.02 1.66,-0.87 3.32,-1.75 4.95,-2.67 0.52,-0.04 1.56,-0.11 2.08,-0.15 0.49,-0.32 1.48,-0.98 1.97,-1.31 4.94,-1.65 9.8,-3.58 14.83,-4.96 12.94,-3.84 26.37,-5.69 39.79,-6.72 M 74.15,72.17 C 55.13,93.24 43.34,119.98 37.4,147.54 26.43,191.69 20.33,237.44 24,282.95 c 1.83,23.61 6.34,46.92 11.13,70.09 2.81,11.33 5.33,22.76 9.25,33.78 8.67,28.88 24.71,56.35 48.8,74.99 18.88,14.88 42.93,22.27 66.83,22.55 25.91,0.05 51.82,0.06 77.73,-0.03 -0.06,-31.44 0.04,-62.88 0.41,-94.31 0.21,-9.66 -0.32,-19.38 1.41,-28.93 5.01,-30.5 22.5,-57.85 45.26,-78.27 23.32,-20.86 52.74,-35.41 83.97,-39.05 17.33,-2.04 34.79,-0.84 52.19,-1.09 66.69,-0.06 133.39,0.04 200.08,-0.29 46.01,-1.81 88.92,-34.13 103.6,-77.74 6.51,-18.09 6.77,-37.64 6.26,-56.64 0.04,-27.64 -0.07,-55.28 -0.02,-82.93 -32.97,-0.43 -65.95,-0.15 -98.93,-0.31 -149.66,-0.45 -299.33,0.24 -448.99,0.2 -40.69,0.02 -81.4,16.92 -108.83,47.2 M 755.01,24.94 c 0,25.34 0,50.68 0,76.03 -0.05,12.35 0.29,24.72 -0.68,37.06 -1.72,17.52 -6.69,34.76 -14.87,50.37 -22.54,44.42 -68.62,76.28 -118.44,80.33 -15.33,1.04 -30.71,0.41 -46.07,0.58 -59.32,0 -118.64,-0.01 -177.96,-0.01 -10.34,0.05 -20.68,-0.25 -30.99,0.61 -17.63,1.83 -34.88,7.63 -49.88,17.12 -32.8,20.2 -55,57.3 -55.26,96.07 -0.2,70.97 -0.01,141.95 -0.1,212.92 -0.05,4.85 0.29,9.74 1.61,14.43 4.28,16.33 12.64,31.11 20.12,46.11 20.61,37.57 43.94,73.56 67.89,109.07 20.48,30.62 41.92,60.59 63.38,90.53 16.66,23.57 34,46.65 51.04,69.95 13.19,17.65 26.57,35.15 39.75,52.81 29.02,-41.6 57.73,-83.43 85.39,-125.95 35.97,-54.71 71.09,-110.07 102.34,-167.65 6.29,-12.43 13.06,-24.63 18.54,-37.46 7.64,-16.99 15.98,-34.77 15.15,-53.85 -0.02,-26.69 0,-53.38 -0.01,-80.07 -77.48,0 -154.97,0 -232.45,0 0,-9.6 -0.02,-19.2 0.01,-28.8 112.48,0.04 224.97,0 337.46,0.01 10.05,0 20.18,0.13 30.14,-1.45 16.41,-2.24 32.3,-8.86 44.98,-19.58 14.76,-12.21 25.09,-28.77 33.45,-45.78 5.75,-12.73 11.26,-25.58 15.76,-38.8 14.59,-38.71 22.02,-80.14 21.11,-121.53 -0.5,-40.63 -8.51,-80.69 -18.22,-120 C 952.65,117.09 945.44,96.4 934.22,77.8 925.33,62.93 913.56,49.5 898.8,40.23 882.29,29.59 862.47,25.12 842.99,25 813.66,24.86 784.34,24.98 755.01,24.94 Z"
         id="path5" />
      <path
         style="opacity:1;fill:#000000"
         inkscape:connector-curvature="0"
         d="m 614.51,572.73 c 9.99,-2.19 20.77,-0.97 29.86,3.79 10.53,5.31 18.71,15.15 21.82,26.55 3.28,11.41 1.42,24.16 -4.88,34.22 -5.54,8.82 -14.27,15.7 -24.31,18.59 -11.47,3.56 -24.42,2.07 -34.77,-4.04 -9.75,-5.65 -17.15,-15.23 -20.04,-26.13 -2.84,-10.51 -1.53,-22.15 3.85,-31.65 5.85,-10.76 16.54,-18.64 28.47,-21.33 m 1.73,21.45 c -2.68,1.31 -5.23,2.85 -7.56,4.71 l -0.13,0.27 c -1.11,0.61 -2.01,1.45 -2.52,2.62 -0.72,1.63 -1.52,3.23 -2.39,4.8 -1.68,4.35 -1.02,9.07 -0.99,13.61 0.39,1.04 0.76,2.09 1.13,3.16 2.23,5.77 7.07,9.93 12.86,11.92 5.87,1.45 12.09,1.39 17.74,-0.95 4.02,-1.97 6.93,-5.56 9.64,-9.01 0.94,-3.41 2.19,-6.79 2.43,-10.34 -0.12,-3.42 -1.26,-6.71 -2.2,-9.97 -0.78,-1.14 -1.5,-2.3 -2.07,-3.55 -2.03,-2.69 -4.72,-4.74 -7.64,-6.37 -5.74,-1.65 -11.75,0.17 -17.61,-0.6 4.82,-0.13 9.68,0.23 14.45,-0.7 -5.03,-0.16 -10.2,-0.8 -15.14,0.4 z"
         id="path7" />
    </g>
    <g
       transform="matrix(0.0127565,0,0,0.0127565,-0.02599276,284.3273)"
       id="#3673a5ff">
      <path
         style="opacity:1;fill:#3673a5"
         inkscape:connector-curvature="0"
         d="m 74.15,72.17 c 27.43,-30.28 68.14,-47.18 108.83,-47.2 149.66,0.04 299.33,-0.65 448.99,-0.2 32.98,0.16 65.96,-0.12 98.93,0.31 -0.05,27.65 0.06,55.29 0.02,82.93 0.51,19 0.25,38.55 -6.26,56.64 -14.68,43.61 -57.59,75.93 -103.6,77.74 -66.69,0.33 -133.39,0.23 -200.08,0.29 -17.4,0.25 -34.86,-0.95 -52.19,1.09 -31.23,3.64 -60.65,18.19 -83.97,39.05 -22.76,20.42 -40.25,47.77 -45.26,78.27 -1.73,9.55 -1.2,19.27 -1.41,28.93 -0.37,31.43 -0.47,62.87 -0.41,94.31 -25.91,0.09 -51.82,0.08 -77.73,0.03 -23.9,-0.28 -47.95,-7.67 -66.83,-22.55 C 69.09,443.17 53.05,415.7 44.38,386.82 40.46,375.8 37.94,364.37 35.13,353.04 30.34,329.87 25.83,306.56 24,282.95 20.33,237.44 26.43,191.69 37.4,147.54 43.34,119.98 55.13,93.24 74.15,72.17 Z"
         id="path10" />
    </g>
    <g
       transform="matrix(0.0127565,0,0,0.0127565,-0.02599276,284.3273)"
       id="#ffd147ff">
      <path
         style="opacity:1;fill:#ffd147"
         inkscape:connector-curvature="0"
         d="m 755.01,24.94 c 29.33,0.04 58.65,-0.08 87.98,0.06 19.48,0.12 39.3,4.59 55.81,15.23 14.76,9.27 26.53,22.7 35.42,37.57 11.22,18.6 18.43,39.29 23.98,60.21 9.71,39.31 17.72,79.37 18.22,120 0.91,41.39 -6.52,82.82 -21.11,121.53 -4.5,13.22 -10.01,26.07 -15.76,38.8 -8.36,17.01 -18.69,33.57 -33.45,45.78 -12.68,10.72 -28.57,17.34 -44.98,19.58 -9.96,1.58 -20.09,1.45 -30.14,1.45 -112.49,-0.01 -224.98,0.03 -337.46,-0.01 -0.03,9.6 -0.01,19.2 -0.01,28.8 77.48,0 154.97,0 232.45,0 0.01,26.69 -0.01,53.38 0.01,80.07 0.83,19.08 -7.51,36.86 -15.15,53.85 -5.48,12.83 -12.25,25.03 -18.54,37.46 -31.25,57.58 -66.37,112.94 -102.34,167.65 -27.66,42.52 -56.37,84.35 -85.39,125.95 -13.18,-17.66 -26.56,-35.16 -39.75,-52.81 -17.04,-23.3 -34.38,-46.38 -51.04,-69.95 -21.46,-29.94 -42.9,-59.91 -63.38,-90.53 -23.95,-35.51 -47.28,-71.5 -67.89,-109.07 -7.48,-15 -15.84,-29.78 -20.12,-46.11 -1.32,-4.69 -1.66,-9.58 -1.61,-14.43 0.09,-70.97 -0.1,-141.95 0.1,-212.92 0.26,-38.77 22.46,-75.87 55.26,-96.07 15,-9.49 32.25,-15.29 49.88,-17.12 10.31,-0.86 20.65,-0.56 30.99,-0.61 59.32,0 118.64,0.01 177.96,0.01 15.36,-0.17 30.74,0.46 46.07,-0.58 49.82,-4.05 95.9,-35.91 118.44,-80.33 8.18,-15.61 13.15,-32.85 14.87,-50.37 0.97,-12.34 0.63,-24.71 0.68,-37.06 0,-25.35 0,-50.69 0,-76.03 m -140.5,547.79 c -11.93,2.69 -22.62,10.57 -28.47,21.33 -5.38,9.5 -6.69,21.14 -3.85,31.65 2.89,10.9 10.29,20.48 20.04,26.13 10.35,6.11 23.3,7.6 34.77,4.04 10.04,-2.89 18.77,-9.77 24.31,-18.59 6.3,-10.06 8.16,-22.81 4.88,-34.22 -3.11,-11.4 -11.29,-21.24 -21.82,-26.55 -9.09,-4.76 -19.87,-5.98 -29.86,-3.79 z"
         id="path13" />
    </g>
  </g>
</svg>
